SubSource-HROTx_VROTdd_SLENx_SANGx.ufo
<glyph name="plus" format="2">
  <advance width="382"/>
  <unicode hex="002B"/>
  <outline>
    <contour>
      <point x="317" y="365" type="curve" smooth="yes"/>
      <point x="284" y="295"/>
      <point x="289" y="164"/>
      <point x="320" y="3" type="curve" smooth="yes"/>
      <point x="333" y="-64"/>
      <point x="245" y="-81"/>
      <point x="232" y="-15" type="curve" smooth="yes"/>
      <point x="194" y="181"/>
      <point x="196" y="319"/>
      <point x="235" y="403" type="curve" smooth="yes"/>
      <point x="264" y="464"/>
      <point x="345" y="426"/>
    </contour>
    <contour>
      <point x="441" y="155" type="curve" smooth="yes"/>
      <point x="377" y="95"/>
      <point x="273" y="86"/>
      <point x="125" y="146" type="curve" smooth="yes"/>
      <point x="63" y="172"/>
      <point x="96" y="255"/>
      <point x="159" y="230" type="curve" smooth="yes"/>
      <point x="255" y="191"/>
      <point x="338" y="182"/>
      <point x="379" y="221" type="curve" smooth="yes"/>
      <point x="428" y="267"/>
      <point x="490" y="202"/>
    </contour>
  </outline>
</glyph>
<glyph name="zero" format="2">
  <advance width="418"/>
  <unicode hex="0030"/>
  <outline>
    <contour>
      <point x="311" y="-2" type="curve" smooth="yes"/>
      <point x="330" y="-1"/>
      <point x="348" y="2"/>
      <point x="360" y="15" type="curve" smooth="yes"/>
      <point x="390" y="47"/>
      <point x="398" y="144"/>
      <point x="398" y="221" type="curve" smooth="yes"/>
      <point x="398" y="351"/>
      <point x="360" y="480"/>
      <point x="294" y="480" type="curve" smooth="yes"/>
      <point x="228" y="480"/>
      <point x="190" y="351"/>
      <point x="190" y="221" type="curve" smooth="yes"/>
      <point x="190" y="133"/>
      <point x="214" y="43"/>
      <point x="234" y="6" type="curve" smooth="yes"/>
      <point x="235" y="4"/>
      <point x="235" y="-2"/>
      <point x="236" y="-2" type="curve" smooth="yes"/>
      <point x="304" y="-6"/>
      <point x="299" y="-95"/>
      <point x="232" y="-92" type="curve" smooth="yes"/>
      <point x="198" y="-90"/>
      <point x="176" y="-76"/>
      <point x="156" y="-38" type="curve" smooth="yes"/>
      <point x="130" y="9"/>
      <point x="100" y="111"/>
      <point x="100" y="221" type="curve" smooth="yes"/>
      <point x="100" y="441"/>
      <point x="182" y="570"/>
      <point x="294" y="570" type="curve" smooth="yes"/>
      <point x="405" y="570"/>
      <point x="488" y="441"/>
      <point x="488" y="221" type="curve" smooth="yes"/>
      <point x="488" y="102"/>
      <point x="473" y="4"/>
      <point x="426" y="-47" type="curve" smooth="yes"/>
      <point x="396" y="-78"/>
      <point x="358" y="-91"/>
      <point x="313" y="-92" type="curve" smooth="yes"/>
      <point x="246" y="-94"/>
      <point x="243" y="-4"/>
    </contour>
  </outline>
</glyph>
<glyph name="one" format="2">
  <advance width="244"/>
  <unicode hex="0031"/>
  <outline>
    <contour>
      <point x="58" y="615" type="curve" smooth="yes"/>
      <point x="103" y="617"/>
      <point x="156" y="616"/>
      <point x="199" y="591" type="curve" smooth="yes"/>
      <point x="249" y="561"/>
      <point x="285" y="502"/>
      <point x="285" y="350" type="curve" smooth="yes"/>
      <point x="285" y="201"/>
      <point x="285" y="135"/>
      <point x="285" y="45" type="curve" smooth="yes"/>
      <point x="285" y="-33"/>
      <point x="272" y="-67"/>
      <point x="246" y="-86" type="curve" smooth="yes"/>
      <point x="192" y="-127"/>
      <point x="138" y="-55"/>
      <point x="192" y="-14" type="curve" smooth="yes"/>
      <point x="193" y="-13"/>
      <point x="195" y="41"/>
      <point x="195" y="45" type="curve" smooth="yes"/>
      <point x="195" y="179"/>
      <point x="195" y="250"/>
      <point x="195" y="350" type="curve" smooth="yes"/>
      <point x="195" y="439"/>
      <point x="183" y="496"/>
      <point x="153" y="513" type="curve" smooth="yes"/>
      <point x="129" y="528"/>
      <point x="88" y="526"/>
      <point x="62" y="525" type="curve" smooth="yes"/>
      <point x="-5" y="521"/>
      <point x="-10" y="611"/>
    </contour>
  </outline>
</glyph>
<glyph name="three" format="2">
  <advance width="346"/>
  <unicode hex="0033"/>
  <outline>
    <contour>
      <point x="155" y="9" type="curve" smooth="yes"/>
      <point x="184" y="-12"/>
      <point x="218" y="-28"/>
      <point x="249" y="-31" type="curve" smooth="yes"/>
      <point x="300" y="-37"/>
      <point x="338" y="-3"/>
      <point x="326" y="77" type="curve" smooth="yes"/>
      <point x="309" y="183"/>
      <point x="234" y="261"/>
      <point x="195" y="272" type="curve" smooth="yes"/>
      <point x="172" y="279"/>
      <point x="169" y="278"/>
      <point x="154" y="279" type="curve" smooth="yes"/>
      <point x="152" y="279"/>
      <point x="214" y="330"/>
      <point x="220" y="334" type="curve" smooth="yes"/>
      <point x="236" y="345"/>
      <point x="243" y="358"/>
      <point x="254" y="375" type="curve" smooth="yes"/>
      <point x="264" y="393"/>
      <point x="275" y="421"/>
      <point x="281" y="472" type="curve" smooth="yes"/>
      <point x="284" y="490"/>
      <point x="284" y="550"/>
      <point x="275" y="545" type="curve" smooth="yes"/>
      <point x="243" y="527"/>
      <point x="206" y="469"/>
      <point x="149" y="470" type="curve" smooth="yes"/>
      <point x="81" y="472"/>
      <point x="84" y="562"/>
      <point x="151" y="560" type="curve" smooth="yes"/>
      <point x="173" y="559"/>
      <point x="147" y="578"/>
      <point x="233" y="625" type="curve" smooth="yes"/>
      <point x="303" y="663"/>
      <point x="390" y="615"/>
      <point x="371" y="460" type="curve" smooth="yes"/>
      <point x="361" y="391"/>
      <point x="346" y="353"/>
      <point x="330" y="327" type="curve" smooth="yes"/>
      <point x="311" y="297"/>
      <point x="299" y="279"/>
      <point x="272" y="260" type="curve" smooth="yes"/>
      <point x="82" y="128"/>
      <point x="98" y="374"/>
      <point x="160" y="369" type="curve" smooth="yes"/>
      <point x="179" y="368"/>
      <point x="190" y="367"/>
      <point x="221" y="358" type="curve" smooth="yes"/>
      <point x="278" y="341"/>
      <point x="389" y="250"/>
      <point x="414" y="91" type="curve" smooth="yes"/>
      <point x="438" y="-62"/>
      <point x="336" y="-131"/>
      <point x="239" y="-121" type="curve" smooth="yes"/>
      <point x="194" y="-116"/>
      <point x="146" y="-96"/>
      <point x="101" y="-63" type="curve" smooth="yes"/>
      <point x="47" y="-24"/>
      <point x="100" y="49"/>
    </contour>
  </outline>
</glyph>
<glyph name="five" format="2">
  <advance width="355"/>
  <unicode hex="0035"/>
  <outline>
    <contour>
      <point x="381" y="526" type="curve" smooth="yes"/>
      <point x="365" y="492"/>
      <point x="343" y="477"/>
      <point x="311" y="472" type="curve" smooth="yes"/>
      <point x="284" y="467"/>
      <point x="243" y="465"/>
      <point x="203" y="481" type="curve" smooth="yes"/>
      <point x="200" y="482"/>
      <point x="206" y="502"/>
      <point x="206" y="499" type="curve" smooth="yes"/>
      <point x="209" y="453"/>
      <point x="211" y="438"/>
      <point x="214" y="400" type="curve" smooth="yes"/>
      <point x="217" y="353"/>
      <point x="217" y="331"/>
      <point x="214" y="287" type="curve" smooth="yes"/>
      <point x="207" y="135"/>
      <point x="54" y="289"/>
      <point x="116" y="347" type="curve" smooth="yes"/>
      <point x="141" y="370"/>
      <point x="162" y="372"/>
      <point x="198" y="372" type="curve" smooth="yes"/>
      <point x="291" y="372"/>
      <point x="408" y="259"/>
      <point x="428" y="90" type="curve" smooth="yes"/>
      <point x="449" y="-90"/>
      <point x="349" y="-141"/>
      <point x="245" y="-129" type="curve" smooth="yes"/>
      <point x="206" y="-124"/>
      <point x="167" y="-112"/>
      <point x="127" y="-90" type="curve" smooth="yes"/>
      <point x="68" y="-57"/>
      <point x="112" y="21"/>
      <point x="171" y="-12" type="curve" smooth="yes"/>
      <point x="199" y="-28"/>
      <point x="228" y="-36"/>
      <point x="255" y="-39" type="curve" smooth="yes"/>
      <point x="316" y="-47"/>
      <point x="351" y="-25"/>
      <point x="338" y="80" type="curve" smooth="yes"/>
      <point x="326" y="182"/>
      <point x="254" y="282"/>
      <point x="198" y="282" type="curve" smooth="yes"/>
      <point x="196" y="282"/>
      <point x="179" y="282"/>
      <point x="178" y="281" type="curve" smooth="yes"/>
      <point x="177" y="280"/>
      <point x="124" y="289"/>
      <point x="124" y="293" type="curve" smooth="yes"/>
      <point x="127" y="333"/>
      <point x="127" y="351"/>
      <point x="124" y="392" type="curve" smooth="yes"/>
      <point x="121" y="430"/>
      <point x="119" y="447"/>
      <point x="116" y="493" type="curve" smooth="yes"/>
      <point x="111" y="572"/>
      <point x="169" y="591"/>
      <point x="235" y="565" type="curve" smooth="yes"/>
      <point x="257" y="557"/>
      <point x="280" y="557"/>
      <point x="297" y="560" type="curve" smooth="yes"/>
      <point x="298" y="561"/>
      <point x="299" y="563"/>
      <point x="299" y="564" type="curve" smooth="yes"/>
      <point x="328" y="625"/>
      <point x="410" y="587"/>
    </contour>
  </outline>
</glyph>
<glyph name="seven" format="2">
  <advance width="341"/>
  <unicode hex="0037"/>
  <outline>
    <contour>
      <point x="139" y="584" type="curve" smooth="yes"/>
      <point x="163" y="570"/>
      <point x="184" y="560"/>
      <point x="203" y="560" type="curve" smooth="yes"/>
      <point x="253" y="560"/>
      <point x="268" y="560"/>
      <point x="301" y="560" type="curve" smooth="yes"/>
      <point x="379" y="560"/>
      <point x="356" y="660"/>
      <point x="353" y="440" type="curve" smooth="yes"/>
      <point x="351" y="279"/>
      <point x="323" y="145"/>
      <point x="282" y="12" type="curve" smooth="yes"/>
      <point x="267" y="-35"/>
      <point x="242" y="-68"/>
      <point x="208" y="-89" type="curve" smooth="yes"/>
      <point x="150" y="-123"/>
      <point x="104" y="-46"/>
      <point x="162" y="-11" type="curve" smooth="yes"/>
      <point x="178" y="-2"/>
      <point x="189" y="16"/>
      <point x="196" y="38" type="curve" smooth="yes"/>
      <point x="235" y="163"/>
      <point x="261" y="289"/>
      <point x="263" y="442" type="curve" smooth="yes"/>
      <point x="263" y="453"/>
      <point x="305" y="470"/>
      <point x="301" y="470" type="curve" smooth="yes"/>
      <point x="252" y="470"/>
      <point x="237" y="470"/>
      <point x="203" y="470" type="curve" smooth="yes"/>
      <point x="169" y="470"/>
      <point x="136" y="481"/>
      <point x="93" y="506" type="curve" smooth="yes"/>
      <point x="35" y="540"/>
      <point x="81" y="618"/>
    </contour>
  </outline>
</glyph>
<glyph name="greater" format="2">
  <advance width="317"/>
  <unicode hex="003E"/>
  <outline>
    <contour>
      <point x="121" y="84" type="curve" smooth="yes"/>
      <point x="170" y="98"/>
      <point x="216" y="119"/>
      <point x="252" y="167" type="curve" smooth="yes"/>
      <point x="282" y="208"/>
      <point x="258" y="224"/>
      <point x="213" y="265" type="curve" smooth="yes"/>
      <point x="162" y="312"/>
      <point x="170" y="278"/>
      <point x="119" y="320" type="curve" smooth="yes"/>
      <point x="67" y="364"/>
      <point x="125" y="433"/>
      <point x="177" y="390" type="curve" smooth="yes"/>
      <point x="212" y="360"/>
      <point x="200" y="400"/>
      <point x="275" y="331" type="curve" smooth="yes"/>
      <point x="363" y="249"/>
      <point x="384" y="194"/>
      <point x="324" y="113" type="curve" smooth="yes"/>
      <point x="274" y="47"/>
      <point x="212" y="16"/>
      <point x="145" y="-2" type="curve" smooth="yes"/>
      <point x="80" y="-20"/>
      <point x="56" y="66"/>
    </contour>
  </outline>
</glyph>
<glyph name="at" format="2">
  <advance width="676"/>
  <unicode hex="0040"/>
  <outline>
    <contour>
      <point x="575" y="308" type="curve" smooth="yes"/>
      <point x="575" y="254"/>
      <point x="575" y="189"/>
      <point x="575" y="144" type="curve" smooth="yes"/>
      <point x="575" y="15"/>
      <point x="508" y="-63"/>
      <point x="426" y="-63" type="curve" smooth="yes"/>
      <point x="343" y="-63"/>
      <point x="275" y="18"/>
      <point x="275" y="147" type="curve" smooth="yes"/>
      <point x="275" y="268"/>
      <point x="329" y="353"/>
      <point x="383" y="382" type="curve" smooth="yes"/>
      <point x="451" y="417"/>
      <point x="505" y="399"/>
      <point x="505" y="250" type="curve" smooth="yes"/>
      <point x="505" y="166"/>
      <point x="561" y="85"/>
      <point x="602" y="69" type="curve" smooth="yes"/>
      <point x="643" y="53"/>
      <point x="653" y="126"/>
      <point x="653" y="192" type="curve" smooth="yes"/>
      <point x="653" y="358"/>
      <point x="570" y="479"/>
      <point x="438" y="479" type="curve" smooth="yes"/>
      <point x="302" y="479"/>
      <point x="209" y="330"/>
      <point x="209" y="140" type="curve" smooth="yes"/>
      <point x="209" y="-53"/>
      <point x="299" y="-184"/>
      <point x="430" y="-184" type="curve" smooth="yes"/>
      <point x="455" y="-184"/>
      <point x="479" y="-182"/>
      <point x="490" y="-144" type="curve" smooth="yes"/>
      <point x="507" y="-79"/>
      <point x="594" y="-103"/>
      <point x="576" y="-168" type="curve" smooth="yes"/>
      <point x="553" y="-254"/>
      <point x="487" y="-274"/>
      <point x="430" y="-274" type="curve" smooth="yes"/>
      <point x="256" y="-274"/>
      <point x="119" y="-116"/>
      <point x="119" y="140" type="curve" smooth="yes"/>
      <point x="119" y="392"/>
      <point x="257" y="569"/>
      <point x="438" y="569" type="curve" smooth="yes"/>
      <point x="616" y="569"/>
      <point x="743" y="416"/>
      <point x="743" y="192" type="curve" smooth="yes"/>
      <point x="743" y="25"/>
      <point x="672" y="-55"/>
      <point x="570" y="-15" type="curve" smooth="yes"/>
      <point x="503" y="11"/>
      <point x="415" y="116"/>
      <point x="415" y="250" type="curve" smooth="yes"/>
      <point x="415" y="257"/>
      <point x="428" y="304"/>
      <point x="425" y="302" type="curve" smooth="yes"/>
      <point x="394" y="285"/>
      <point x="365" y="219"/>
      <point x="365" y="147" type="curve" smooth="yes"/>
      <point x="365" y="87"/>
      <point x="388" y="27"/>
      <point x="426" y="27" type="curve" smooth="yes"/>
      <point x="464" y="27"/>
      <point x="485" y="85"/>
      <point x="485" y="144" type="curve" smooth="yes"/>
      <point x="485" y="211"/>
      <point x="485" y="272"/>
      <point x="485" y="308" type="curve" smooth="yes"/>
      <point x="485" y="376"/>
      <point x="575" y="376"/>
    </contour>
  </outline>
</glyph>
<glyph name="D" format="2">
  <advance width="466"/>
  <unicode hex="0044"/>
  <outline>
    <contour>
      <point x="126" y="-8" type="curve" smooth="yes"/>
      <point x="127" y="-8"/>
      <point x="128" y="70"/>
      <point x="128" y="77" type="curve" smooth="yes"/>
      <point x="128" y="199"/>
      <point x="128" y="294"/>
      <point x="128" y="376" type="curve" smooth="yes"/>
      <point x="128" y="407"/>
      <point x="76" y="617"/>
      <point x="166" y="617" type="curve" smooth="yes"/>
      <point x="212" y="617"/>
      <point x="270" y="578"/>
      <point x="322" y="557" type="curve" smooth="yes"/>
      <point x="510" y="480"/>
      <point x="536" y="406"/>
      <point x="536" y="216" type="curve" smooth="yes"/>
      <point x="536" y="8"/>
      <point x="445" y="-140"/>
      <point x="293" y="-120" type="curve" smooth="yes"/>
      <point x="267" y="-116"/>
      <point x="238" y="-105"/>
      <point x="200" y="-84" type="curve" smooth="yes"/>
      <point x="141" y="-52"/>
      <point x="184" y="27"/>
      <point x="244" y="-6" type="curve" smooth="yes"/>
      <point x="267" y="-19"/>
      <point x="289" y="-28"/>
      <point x="305" y="-30" type="curve" smooth="yes"/>
      <point x="403" y="-44"/>
      <point x="446" y="82"/>
      <point x="446" y="216" type="curve" smooth="yes"/>
      <point x="446" y="368"/>
      <point x="439" y="412"/>
      <point x="288" y="473" type="curve" smooth="yes"/>
      <point x="188" y="514"/>
      <point x="190" y="527"/>
      <point x="166" y="527" type="curve" smooth="yes"/>
      <point x="160" y="527"/>
      <point x="218" y="876"/>
      <point x="218" y="376" type="curve" smooth="yes"/>
      <point x="218" y="254"/>
      <point x="218" y="159"/>
      <point x="218" y="77" type="curve" smooth="yes"/>
      <point x="218" y="-54"/>
      <point x="198" y="-68"/>
      <point x="178" y="-82" type="curve" smooth="yes"/>
      <point x="123" y="-121"/>
      <point x="71" y="-48"/>
    </contour>
  </outline>
</glyph>
<glyph name="E" format="2">
  <advance width="369"/>
  <unicode hex="0045"/>
  <outline>
    <contour>
      <point x="403" y="527" type="curve" smooth="yes"/>
      <point x="382" y="478"/>
      <point x="343" y="470"/>
      <point x="292" y="470" type="curve" smooth="yes"/>
      <point x="262" y="470"/>
      <point x="252" y="470"/>
      <point x="230" y="470" type="curve" smooth="yes"/>
      <point x="216" y="470"/>
      <point x="218" y="444"/>
      <point x="218" y="424" type="curve" smooth="yes"/>
      <point x="218" y="346"/>
      <point x="189" y="314"/>
      <point x="160" y="304" type="curve" smooth="yes"/>
      <point x="68" y="273"/>
      <point x="35" y="395"/>
      <point x="133" y="395" type="curve" smooth="yes"/>
      <point x="171" y="395"/>
      <point x="210" y="395"/>
      <point x="239" y="395" type="curve" smooth="yes"/>
      <point x="366" y="395"/>
      <point x="451" y="185"/>
      <point x="324" y="185" type="curve" smooth="yes"/>
      <point x="286" y="185"/>
      <point x="249" y="185"/>
      <point x="219" y="185" type="curve" smooth="yes"/>
      <point x="216" y="185"/>
      <point x="218" y="180"/>
      <point x="218" y="177" type="curve" smooth="yes"/>
      <point x="218" y="106"/>
      <point x="218" y="32"/>
      <point x="218" y="2" type="curve" smooth="yes"/>
      <point x="218" y="-18"/>
      <point x="216" y="-30"/>
      <point x="229" y="-30" type="curve" smooth="yes"/>
      <point x="255" y="-30"/>
      <point x="263" y="-30"/>
      <point x="288" y="-30" type="curve" smooth="yes"/>
      <point x="297" y="-30"/>
      <point x="317" y="-32"/>
      <point x="323" y="-22" type="curve" smooth="yes"/>
      <point x="358" y="36"/>
      <point x="435" y="-10"/>
      <point x="401" y="-68" type="curve" smooth="yes"/>
      <point x="373" y="-115"/>
      <point x="330" y="-120"/>
      <point x="288" y="-120" type="curve" smooth="yes"/>
      <point x="251" y="-120"/>
      <point x="246" y="-120"/>
      <point x="229" y="-120" type="curve" smooth="yes"/>
      <point x="170" y="-120"/>
      <point x="128" y="-90"/>
      <point x="128" y="2" type="curve" smooth="yes"/>
      <point x="128" y="47"/>
      <point x="128" y="130"/>
      <point x="128" y="177" type="curve" smooth="yes"/>
      <point x="128" y="243"/>
      <point x="161" y="275"/>
      <point x="219" y="275" type="curve" smooth="yes"/>
      <point x="264" y="275"/>
      <point x="299" y="275"/>
      <point x="324" y="275" type="curve" smooth="yes"/>
      <point x="329" y="275"/>
      <point x="244" y="305"/>
      <point x="239" y="305" type="curve" smooth="yes"/>
      <point x="196" y="305"/>
      <point x="158" y="305"/>
      <point x="133" y="305" type="curve" smooth="yes"/>
      <point x="131" y="305"/>
      <point x="129" y="388"/>
      <point x="130" y="388" type="curve" smooth="yes"/>
      <point x="131" y="389"/>
      <point x="128" y="421"/>
      <point x="128" y="424" type="curve" smooth="yes"/>
      <point x="128" y="521"/>
      <point x="160" y="560"/>
      <point x="230" y="560" type="curve" smooth="yes"/>
      <point x="263" y="560"/>
      <point x="272" y="560"/>
      <point x="292" y="560" type="curve" smooth="yes"/>
      <point x="296" y="560"/>
      <point x="319" y="559"/>
      <point x="321" y="563" type="curve" smooth="yes"/>
      <point x="348" y="625"/>
      <point x="430" y="589"/>
    </contour>
  </outline>
</glyph>
<glyph name="K" format="2">
  <advance width="417"/>
  <unicode hex="004B"/>
  <outline>
    <contour>
      <point x="203" y="550" type="curve" smooth="yes"/>
      <point x="218" y="482"/>
      <point x="218" y="435"/>
      <point x="218" y="388" type="curve" smooth="yes"/>
      <point x="218" y="241"/>
      <point x="218" y="125"/>
      <point x="218" y="26" type="curve" smooth="yes"/>
      <point x="218" y="-35"/>
      <point x="207" y="-71"/>
      <point x="183" y="-90" type="curve" smooth="yes"/>
      <point x="130" y="-132"/>
      <point x="74" y="-61"/>
      <point x="127" y="-20" type="curve" smooth="yes"/>
      <point x="128" y="-19"/>
      <point x="128" y="23"/>
      <point x="128" y="26" type="curve" smooth="yes"/>
      <point x="128" y="173"/>
      <point x="128" y="289"/>
      <point x="128" y="388" type="curve" smooth="yes"/>
      <point x="128" y="429"/>
      <point x="128" y="470"/>
      <point x="115" y="530" type="curve" smooth="yes"/>
      <point x="101" y="596"/>
      <point x="189" y="616"/>
    </contour>
    <contour>
      <point x="473" y="529" type="curve" smooth="yes"/>
      <point x="455" y="462"/>
      <point x="426" y="414"/>
      <point x="389" y="377" type="curve" smooth="yes"/>
      <point x="353" y="343"/>
      <point x="286" y="287"/>
      <point x="234" y="279" type="curve" smooth="yes"/>
      <point x="227" y="279"/>
      <point x="265" y="241"/>
      <point x="270" y="234" type="curve" smooth="yes"/>
      <point x="328" y="158"/>
      <point x="430" y="21"/>
      <point x="484" y="-54" type="curve" smooth="yes"/>
      <point x="523" y="-109"/>
      <point x="450" y="-161"/>
      <point x="410" y="-106" type="curve" smooth="yes"/>
      <point x="358" y="-33"/>
      <point x="256" y="104"/>
      <point x="198" y="180" type="curve" smooth="yes"/>
      <point x="104" y="305"/>
      <point x="113" y="354"/>
      <point x="220" y="369" type="curve" smooth="yes"/>
      <point x="248" y="373"/>
      <point x="307" y="424"/>
      <point x="325" y="441" type="curve" smooth="yes"/>
      <point x="352" y="468"/>
      <point x="373" y="502"/>
      <point x="385" y="551" type="curve" smooth="yes"/>
      <point x="402" y="617"/>
      <point x="489" y="594"/>
    </contour>
  </outline>
</glyph>
<glyph name="L" format="2">
  <advance width="352"/>
  <unicode hex="004C"/>
  <outline>
    <contour>
      <point x="377" y="-120" type="curve" smooth="yes"/>
      <point x="322" y="-120"/>
      <point x="245" y="-70"/>
      <point x="205" y="-70" type="curve" smooth="yes"/>
      <point x="109" y="-70"/>
      <point x="128" y="-92"/>
      <point x="128" y="83" type="curve" smooth="yes"/>
      <point x="128" y="212"/>
      <point x="128" y="313"/>
      <point x="128" y="400" type="curve" smooth="yes"/>
      <point x="128" y="437"/>
      <point x="128" y="474"/>
      <point x="115" y="530" type="curve" smooth="yes"/>
      <point x="100" y="596"/>
      <point x="187" y="616"/>
      <point x="203" y="550" type="curve" smooth="yes"/>
      <point x="218" y="486"/>
      <point x="218" y="443"/>
      <point x="218" y="400" type="curve" smooth="yes"/>
      <point x="218" y="271"/>
      <point x="218" y="170"/>
      <point x="218" y="83" type="curve" smooth="yes"/>
      <point x="218" y="74"/>
      <point x="200" y="20"/>
      <point x="205" y="20" type="curve" smooth="yes"/>
      <point x="272" y="20"/>
      <point x="344" y="-30"/>
      <point x="377" y="-30" type="curve" smooth="yes"/>
      <point x="445" y="-30"/>
      <point x="445" y="-120"/>
    </contour>
  </outline>
</glyph>
<glyph name="M" format="2">
  <advance width="572"/>
  <unicode hex="004D"/>
  <outline>
    <contour>
      <point x="511" y="-23" type="curve" smooth="yes"/>
      <point x="516" y="-16"/>
      <point x="516" y="33"/>
      <point x="516" y="47" type="curve" smooth="yes"/>
      <point x="516" y="105"/>
      <point x="489" y="208"/>
      <point x="470" y="295" type="curve" smooth="yes"/>
      <point x="452" y="376"/>
      <point x="445" y="429"/>
      <point x="438" y="526" type="curve" smooth="yes"/>
      <point x="416" y="789"/>
      <point x="609" y="637"/>
      <point x="546" y="396" type="curve" smooth="yes"/>
      <point x="529" y="338"/>
      <point x="513" y="277"/>
      <point x="498" y="216" type="curve" smooth="yes"/>
      <point x="480" y="145"/>
      <point x="454" y="88"/>
      <point x="430" y="31" type="curve" smooth="yes"/>
      <point x="369" y="-110"/>
      <point x="282" y="-72"/>
      <point x="225" y="116" type="curve" smooth="yes"/>
      <point x="203" y="188"/>
      <point x="182" y="261"/>
      <point x="162" y="333" type="curve" smooth="yes"/>
      <point x="144" y="397"/>
      <point x="128" y="458"/>
      <point x="112" y="516" type="curve" smooth="yes"/>
      <point x="98" y="567"/>
      <point x="219" y="863"/>
      <point x="219" y="406" type="curve" smooth="yes"/>
      <point x="219" y="334"/>
      <point x="219" y="276"/>
      <point x="219" y="227" type="curve" smooth="yes"/>
      <point x="219" y="147"/>
      <point x="219" y="84"/>
      <point x="219" y="32" type="curve"/>
      <point x="218" y="-22"/>
      <point x="209" y="-56"/>
      <point x="189" y="-81" type="curve" smooth="yes"/>
      <point x="146" y="-133"/>
      <point x="76" y="-75"/>
      <point x="119" y="-23" type="curve" smooth="yes"/>
      <point x="126" y="-15"/>
      <point x="129" y="15"/>
      <point x="129" y="32" type="curve"/>
      <point x="129" y="110"/>
      <point x="129" y="173"/>
      <point x="129" y="227" type="curve" smooth="yes"/>
      <point x="129" y="300"/>
      <point x="129" y="358"/>
      <point x="129" y="406" type="curve" smooth="yes"/>
      <point x="129" y="475"/>
      <point x="108" y="878"/>
      <point x="198" y="540" type="curve" smooth="yes"/>
      <point x="214" y="483"/>
      <point x="230" y="422"/>
      <point x="248" y="357" type="curve" smooth="yes"/>
      <point x="268" y="287"/>
      <point x="289" y="214"/>
      <point x="311" y="142" type="curve" smooth="yes"/>
      <point x="320" y="114"/>
      <point x="338" y="46"/>
      <point x="348" y="67" type="curve" smooth="yes"/>
      <point x="370" y="118"/>
      <point x="394" y="173"/>
      <point x="410" y="238" type="curve" smooth="yes"/>
      <point x="427" y="301"/>
      <point x="443" y="362"/>
      <point x="458" y="418" type="curve" smooth="yes"/>
      <point x="462" y="430"/>
      <point x="527" y="546"/>
      <point x="528" y="532" type="curve" smooth="yes"/>
      <point x="535" y="441"/>
      <point x="540" y="392"/>
      <point x="558" y="315" type="curve" smooth="yes"/>
      <point x="581" y="212"/>
      <point x="606" y="115"/>
      <point x="606" y="47" type="curve" smooth="yes"/>
      <point x="606" y="-11"/>
      <point x="604" y="-48"/>
      <point x="583" y="-77" type="curve" smooth="yes"/>
      <point x="543" y="-131"/>
      <point x="471" y="-78"/>
    </contour>
  </outline>
</glyph>
<glyph name="N" format="2">
  <advance width="486"/>
  <unicode hex="004E"/>
  <outline>
    <contour>
      <point x="119" y="-31" type="curve" smooth="yes"/>
      <point x="127" y="-19"/>
      <point x="128" y="21"/>
      <point x="128" y="44" type="curve" smooth="yes"/>
      <point x="128" y="135"/>
      <point x="128" y="241"/>
      <point x="128" y="318" type="curve" smooth="yes"/>
      <point x="128" y="367"/>
      <point x="128" y="403"/>
      <point x="128" y="429" type="curve" smooth="yes"/>
      <point x="128" y="462"/>
      <point x="51" y="819"/>
      <point x="173" y="587" type="curve" smooth="yes"/>
      <point x="186" y="562"/>
      <point x="201" y="531"/>
      <point x="217" y="499" type="curve" smooth="yes"/>
      <point x="258" y="417"/>
      <point x="308" y="313"/>
      <point x="350" y="226" type="curve" smooth="yes"/>
      <point x="366" y="194"/>
      <point x="380" y="165"/>
      <point x="393" y="141" type="curve" smooth="yes"/>
      <point x="396" y="134"/>
      <point x="438" y="13"/>
      <point x="438" y="21" type="curve" smooth="yes"/>
      <point x="438" y="48"/>
      <point x="438" y="78"/>
      <point x="438" y="106" type="curve" smooth="yes"/>
      <point x="438" y="218"/>
      <point x="438" y="334"/>
      <point x="438" y="396" type="curve" smooth="yes"/>
      <point x="438" y="434"/>
      <point x="435" y="477"/>
      <point x="422" y="534" type="curve" smooth="yes"/>
      <point x="407" y="600"/>
      <point x="495" y="620"/>
      <point x="510" y="554" type="curve" smooth="yes"/>
      <point x="525" y="489"/>
      <point x="528" y="440"/>
      <point x="528" y="396" type="curve" smooth="yes"/>
      <point x="528" y="303"/>
      <point x="528" y="181"/>
      <point x="528" y="106" type="curve" smooth="yes"/>
      <point x="528" y="65"/>
      <point x="528" y="39"/>
      <point x="528" y="21" type="curve" smooth="yes"/>
      <point x="528" y="-161"/>
      <point x="383" y="-41"/>
      <point x="313" y="99" type="curve" smooth="yes"/>
      <point x="300" y="125"/>
      <point x="286" y="154"/>
      <point x="270" y="186" type="curve" smooth="yes"/>
      <point x="230" y="266"/>
      <point x="180" y="369"/>
      <point x="137" y="459" type="curve" smooth="yes"/>
      <point x="121" y="491"/>
      <point x="106" y="520"/>
      <point x="93" y="545" type="curve" smooth="yes"/>
      <point x="82" y="566"/>
      <point x="218" y="798"/>
      <point x="218" y="429" type="curve" smooth="yes"/>
      <point x="218" y="390"/>
      <point x="218" y="351"/>
      <point x="218" y="318" type="curve" smooth="yes"/>
      <point x="218" y="203"/>
      <point x="218" y="105"/>
      <point x="218" y="44" type="curve" smooth="yes"/>
      <point x="218" y="-12"/>
      <point x="212" y="-52"/>
      <point x="193" y="-81" type="curve" smooth="yes"/>
      <point x="156" y="-137"/>
      <point x="81" y="-87"/>
    </contour>
  </outline>
</glyph>
<glyph name="O" format="2">
  <advance width="518"/>
  <unicode hex="004F"/>
  <outline>
    <contour>
      <point x="308" y="-85" type="curve" smooth="yes"/>
      <point x="280" y="-105"/>
      <point x="242" y="-106"/>
      <point x="204" y="-72" type="curve" smooth="yes"/>
      <point x="151" y="-24"/>
      <point x="104" y="90"/>
      <point x="104" y="221" type="curve" smooth="yes"/>
      <point x="104" y="432"/>
      <point x="208" y="570"/>
      <point x="345" y="570" type="curve" smooth="yes"/>
      <point x="482" y="570"/>
      <point x="584" y="432"/>
      <point x="584" y="221" type="curve" smooth="yes"/>
      <point x="584" y="88"/>
      <point x="555" y="-20"/>
      <point x="484" y="-71" type="curve" smooth="yes"/>
      <point x="448" y="-96"/>
      <point x="406" y="-105"/>
      <point x="355" y="-91" type="curve" smooth="yes"/>
      <point x="290" y="-74"/>
      <point x="314" y="13"/>
      <point x="379" y="-5" type="curve" smooth="yes"/>
      <point x="402" y="-11"/>
      <point x="416" y="-8"/>
      <point x="432" y="3" type="curve" smooth="yes"/>
      <point x="478" y="36"/>
      <point x="494" y="133"/>
      <point x="494" y="221" type="curve" smooth="yes"/>
      <point x="494" y="363"/>
      <point x="437" y="480"/>
      <point x="345" y="480" type="curve" smooth="yes"/>
      <point x="253" y="480"/>
      <point x="194" y="364"/>
      <point x="194" y="221" type="curve" smooth="yes"/>
      <point x="194" y="127"/>
      <point x="226" y="30"/>
      <point x="264" y="-4" type="curve" smooth="yes"/>
      <point x="265" y="-6"/>
      <point x="255" y="-12"/>
      <point x="256" y="-11" type="curve" smooth="yes"/>
      <point x="311" y="28"/>
      <point x="363" y="-45"/>
    </contour>
  </outline>
</glyph>
<glyph name="P" format="2">
  <advance width="393"/>
  <unicode hex="0050"/>
  <outline>
    <contour>
      <point x="249" y="240" type="curve" smooth="yes"/>
      <point x="269" y="230"/>
      <point x="286" y="226"/>
      <point x="309" y="223" type="curve" smooth="yes"/>
      <point x="356" y="215"/>
      <point x="369" y="292"/>
      <point x="362" y="362" type="curve" smooth="yes"/>
      <point x="353" y="453"/>
      <point x="311" y="521"/>
      <point x="240" y="535" type="curve" smooth="yes"/>
      <point x="218" y="539"/>
      <point x="199" y="540"/>
      <point x="181" y="540" type="curve" smooth="yes"/>
      <point x="178" y="540"/>
      <point x="218" y="435"/>
      <point x="218" y="430" type="curve" smooth="yes"/>
      <point x="219" y="306"/>
      <point x="219" y="170"/>
      <point x="219" y="58" type="curve" smooth="yes"/>
      <point x="219" y="-3"/>
      <point x="218" y="-48"/>
      <point x="198" y="-82" type="curve" smooth="yes"/>
      <point x="164" y="-141"/>
      <point x="86" y="-96"/>
      <point x="120" y="-38" type="curve" smooth="yes"/>
      <point x="129" y="-21"/>
      <point x="129" y="29"/>
      <point x="129" y="58" type="curve" smooth="yes"/>
      <point x="129" y="170"/>
      <point x="129" y="306"/>
      <point x="128" y="430" type="curve" smooth="yes"/>
      <point x="128" y="569"/>
      <point x="83" y="630"/>
      <point x="181" y="630" type="curve" smooth="yes"/>
      <point x="205" y="630"/>
      <point x="230" y="629"/>
      <point x="256" y="623" type="curve" smooth="yes"/>
      <point x="364" y="603"/>
      <point x="439" y="508"/>
      <point x="452" y="370" type="curve" smooth="yes"/>
      <point x="467" y="216"/>
      <point x="400" y="117"/>
      <point x="295" y="133" type="curve" smooth="yes"/>
      <point x="264" y="138"/>
      <point x="237" y="146"/>
      <point x="209" y="160" type="curve" smooth="yes"/>
      <point x="149" y="190"/>
      <point x="189" y="270"/>
    </contour>
  </outline>
</glyph>
<glyph name="S" format="2">
  <advance width="369"/>
  <unicode hex="0053"/>
  <outline>
    <contour>
      <point x="153" y="36" type="curve" smooth="yes"/>
      <point x="206" y="-15"/>
      <point x="243" y="-35"/>
      <point x="272" y="-37" type="curve" smooth="yes"/>
      <point x="320" y="-41"/>
      <point x="344" y="-1"/>
      <point x="344" y="63" type="curve" smooth="yes"/>
      <point x="344" y="141"/>
      <point x="295" y="161"/>
      <point x="249" y="190" type="curve" smooth="yes"/>
      <point x="179" y="232"/>
      <point x="117" y="271"/>
      <point x="117" y="384" type="curve" smooth="yes"/>
      <point x="116" y="499"/>
      <point x="188" y="559"/>
      <point x="272" y="568" type="curve" smooth="yes"/>
      <point x="349" y="576"/>
      <point x="323" y="559"/>
      <point x="328" y="562" type="curve" smooth="yes"/>
      <point x="383" y="602"/>
      <point x="436" y="530"/>
      <point x="382" y="490" type="curve" smooth="yes"/>
      <point x="351" y="467"/>
      <point x="295" y="480"/>
      <point x="282" y="478" type="curve" smooth="yes"/>
      <point x="236" y="473"/>
      <point x="206" y="447"/>
      <point x="207" y="384" type="curve" smooth="yes"/>
      <point x="207" y="312"/>
      <point x="251" y="294"/>
      <point x="297" y="266" type="curve" smooth="yes"/>
      <point x="367" y="223"/>
      <point x="434" y="182"/>
      <point x="434" y="63" type="curve" smooth="yes"/>
      <point x="434" y="-64"/>
      <point x="359" y="-135"/>
      <point x="264" y="-127" type="curve" smooth="yes"/>
      <point x="222" y="-123"/>
      <point x="169" y="-104"/>
      <point x="91" y="-28" type="curve" smooth="yes"/>
      <point x="42" y="19"/>
      <point x="105" y="83"/>
    </contour>
  </outline>
</glyph>
<glyph name="bracketleft" format="2">
  <advance width="304"/>
  <unicode hex="005B"/>
  <outline>
    <contour>
      <point x="308" y="563" type="curve" smooth="yes"/>
      <point x="184" y="629"/>
      <point x="242" y="538"/>
      <point x="242" y="439" type="curve" smooth="yes"/>
      <point x="242" y="176"/>
      <point x="242" y="100"/>
      <point x="242" y="-77" type="curve" smooth="yes"/>
      <point x="242" y="-178"/>
      <point x="226" y="-127"/>
      <point x="350" y="-193" type="curve" smooth="yes"/>
      <point x="410" y="-225"/>
      <point x="367" y="-305"/>
      <point x="308" y="-273" type="curve" smooth="yes"/>
      <point x="62" y="-140"/>
      <point x="152" y="-277"/>
      <point x="152" y="-77" type="curve" smooth="yes"/>
      <point x="152" y="186"/>
      <point x="152" y="262"/>
      <point x="152" y="439" type="curve" smooth="yes"/>
      <point x="152" y="644"/>
      <point x="93" y="779"/>
      <point x="350" y="643" type="curve" smooth="yes"/>
      <point x="410" y="611"/>
      <point x="368" y="532"/>
    </contour>
  </outline>
</glyph>
<glyph name="backslash" format="2">
  <advance width="346"/>
  <unicode hex="005C"/>
  <outline>
    <contour>
      <point x="297" y="-201" type="curve" smooth="yes"/>
      <point x="301" y="-184"/>
      <point x="293" y="-142"/>
      <point x="285" y="-108" type="curve" smooth="yes"/>
      <point x="238" y="90"/>
      <point x="192" y="292"/>
      <point x="146" y="490" type="curve" smooth="yes"/>
      <point x="138" y="525"/>
      <point x="124" y="566"/>
      <point x="101" y="623" type="curve" smooth="yes"/>
      <point x="76" y="686"/>
      <point x="160" y="719"/>
      <point x="185" y="657" type="curve" smooth="yes"/>
      <point x="210" y="594"/>
      <point x="224" y="549"/>
      <point x="234" y="510" type="curve" smooth="yes"/>
      <point x="280" y="312"/>
      <point x="326" y="110"/>
      <point x="373" y="-88" type="curve" smooth="yes"/>
      <point x="387" y="-148"/>
      <point x="391" y="-189"/>
      <point x="385" y="-219" type="curve" smooth="yes"/>
      <point x="371" y="-285"/>
      <point x="283" y="-267"/>
    </contour>
  </outline>
</glyph>
<glyph name="asciicircum" format="2">
  <advance width="396"/>
  <unicode hex="005E"/>
  <outline>
    <contour>
      <point x="36" y="318" type="curve" smooth="yes"/>
      <point x="153" y="655" type="line" smooth="yes"/>
      <point x="167" y="695"/>
      <point x="224" y="695"/>
      <point x="238" y="655" type="curve" smooth="yes"/>
      <point x="358" y="318" type="line" smooth="yes"/>
      <point x="381" y="255"/>
      <point x="296" y="224"/>
      <point x="274" y="288" type="curve" smooth="yes"/>
      <point x="154" y="625" type="line"/>
      <point x="239" y="625" type="line"/>
      <point x="122" y="288" type="line" smooth="yes"/>
      <point x="99" y="224"/>
      <point x="14" y="254"/>
    </contour>
  </outline>
</glyph>
<glyph name="d" format="2">
  <advance width="412"/>
  <unicode hex="0064"/>
  <outline>
    <contour>
      <point x="456" y="595" type="curve" smooth="yes"/>
      <point x="465" y="550"/>
      <point x="467" y="513"/>
      <point x="462" y="471" type="curve" smooth="yes"/>
      <point x="446" y="339"/>
      <point x="380" y="383"/>
      <point x="380" y="237" type="curve" smooth="yes"/>
      <point x="380" y="53"/>
      <point x="392" y="-100"/>
      <point x="295" y="-129" type="curve" smooth="yes"/>
      <point x="206" y="-157"/>
      <point x="99" y="-43"/>
      <point x="99" y="129" type="curve" smooth="yes"/>
      <point x="99" y="287"/>
      <point x="181" y="388"/>
      <point x="282" y="388" type="curve" smooth="yes"/>
      <point x="382" y="388"/>
      <point x="472" y="279"/>
      <point x="472" y="121" type="curve" smooth="yes"/>
      <point x="472" y="76"/>
      <point x="472" y="22"/>
      <point x="472" y="-1" type="curve" smooth="yes"/>
      <point x="472" y="-40"/>
      <point x="468" y="-73"/>
      <point x="460" y="-100" type="curve" smooth="yes"/>
      <point x="440" y="-165"/>
      <point x="354" y="-138"/>
      <point x="374" y="-74" type="curve" smooth="yes"/>
      <point x="380" y="-55"/>
      <point x="382" y="-28"/>
      <point x="382" y="-1" type="curve" smooth="yes"/>
      <point x="382" y="33"/>
      <point x="382" y="91"/>
      <point x="382" y="121" type="curve" smooth="yes"/>
      <point x="382" y="210"/>
      <point x="339" y="298"/>
      <point x="282" y="298" type="curve" smooth="yes"/>
      <point x="225" y="298"/>
      <point x="189" y="218"/>
      <point x="189" y="129" type="curve" smooth="yes"/>
      <point x="189" y="60"/>
      <point x="233" y="-54"/>
      <point x="269" y="-43" type="curve" smooth="yes"/>
      <point x="296" y="-35"/>
      <point x="290" y="185"/>
      <point x="290" y="237" type="curve" smooth="yes"/>
      <point x="290" y="422"/>
      <point x="360" y="377"/>
      <point x="372" y="483" type="curve" smooth="yes"/>
      <point x="377" y="515"/>
      <point x="375" y="542"/>
      <point x="368" y="577" type="curve" smooth="yes"/>
      <point x="355" y="643"/>
      <point x="443" y="661"/>
    </contour>
  </outline>
</glyph>
<glyph name="j" format="2">
  <advance width="173"/>
  <unicode hex="006A"/>
  <outline>
    <contour>
      <point x="200" y="376" type="curve" smooth="yes"/>
      <point x="215" y="311"/>
      <point x="221" y="238"/>
      <point x="221" y="158" type="curve" smooth="yes"/>
      <point x="221" y="74"/>
      <point x="221" y="-42"/>
      <point x="221" y="-137" type="curve" smooth="yes"/>
      <point x="221" y="-284"/>
      <point x="90" y="-263"/>
      <point x="18" y="-224" type="curve" smooth="yes"/>
      <point x="-42" y="-192"/>
      <point x="1" y="-112"/>
      <point x="60" y="-144" type="curve" smooth="yes"/>
      <point x="85" y="-157"/>
      <point x="131" y="-186"/>
      <point x="131" y="-137" type="curve" smooth="yes"/>
      <point x="131" y="4"/>
      <point x="131" y="102"/>
      <point x="131" y="158" type="curve" smooth="yes"/>
      <point x="131" y="230"/>
      <point x="125" y="297"/>
      <point x="112" y="356" type="curve" smooth="yes"/>
      <point x="97" y="422"/>
      <point x="185" y="442"/>
    </contour>
    <contour>
      <point x="133" y="533" type="curve" smooth="yes"/>
      <point x="134" y="536"/>
      <point x="133" y="547"/>
      <point x="132" y="553" type="curve" smooth="yes"/>
      <point x="119" y="619"/>
      <point x="207" y="637"/>
      <point x="220" y="571" type="curve" smooth="yes"/>
      <point x="226" y="540"/>
      <point x="223" y="519"/>
      <point x="219" y="505" type="curve" smooth="yes"/>
      <point x="197" y="441"/>
      <point x="112" y="469"/>
    </contour>
  </outline>
</glyph>
<glyph name="k" format="2">
  <advance width="355"/>
  <unicode hex="006B"/>
  <outline>
    <contour>
      <point x="196" y="603" type="curve" smooth="yes"/>
      <point x="207" y="542"/>
      <point x="212" y="488"/>
      <point x="212" y="442" type="curve" smooth="yes"/>
      <point x="212" y="285"/>
      <point x="212" y="157"/>
      <point x="212" y="52" type="curve" smooth="yes"/>
      <point x="212" y="2"/>
      <point x="206" y="-40"/>
      <point x="195" y="-74" type="curve" smooth="yes"/>
      <point x="173" y="-138"/>
      <point x="88" y="-110"/>
      <point x="109" y="-46" type="curve" smooth="yes"/>
      <point x="118" y="-20"/>
      <point x="122" y="14"/>
      <point x="122" y="52" type="curve" smooth="yes"/>
      <point x="122" y="209"/>
      <point x="122" y="337"/>
      <point x="122" y="442" type="curve" smooth="yes"/>
      <point x="122" y="484"/>
      <point x="117" y="532"/>
      <point x="108" y="587" type="curve" smooth="yes"/>
      <point x="96" y="654"/>
      <point x="185" y="669"/>
    </contour>
    <contour>
      <point x="411" y="308" type="curve" smooth="yes"/>
      <point x="368" y="260"/>
      <point x="311" y="220"/>
      <point x="234" y="208" type="curve" smooth="yes"/>
      <point x="206" y="203"/>
      <point x="233" y="183"/>
      <point x="261" y="149" type="curve" smooth="yes"/>
      <point x="328" y="67"/>
      <point x="380" y="-1"/>
      <point x="420" y="-52" type="curve" smooth="yes"/>
      <point x="462" y="-105"/>
      <point x="391" y="-161"/>
      <point x="350" y="-108" type="curve" smooth="yes"/>
      <point x="310" y="-57"/>
      <point x="258" y="11"/>
      <point x="191" y="93" type="curve" smooth="yes"/>
      <point x="70" y="240"/>
      <point x="93" y="275"/>
      <point x="220" y="296" type="curve" smooth="yes"/>
      <point x="275" y="306"/>
      <point x="314" y="334"/>
      <point x="345" y="368" type="curve" smooth="yes"/>
      <point x="390" y="418"/>
      <point x="457" y="358"/>
    </contour>
  </outline>
</glyph>
<glyph name="q" format="2">
  <advance width="412"/>
  <unicode hex="0071"/>
  <outline>
    <contour>
      <point x="305" y="-154" type="curve" smooth="yes"/>
      <point x="293" y="-95"/>
      <point x="290" y="-49"/>
      <point x="290" y="-8" type="curve" smooth="yes"/>
      <point x="290" y="44"/>
      <point x="289" y="136"/>
      <point x="293" y="217" type="curve" smooth="yes"/>
      <point x="294" y="229"/>
      <point x="315" y="296"/>
      <point x="311" y="294" type="curve" smooth="yes"/>
      <point x="265" y="268"/>
      <point x="189" y="230"/>
      <point x="189" y="128" type="curve" smooth="yes"/>
      <point x="189" y="39"/>
      <point x="225" y="-41"/>
      <point x="282" y="-41" type="curve" smooth="yes"/>
      <point x="338" y="-41"/>
      <point x="375" y="39"/>
      <point x="375" y="128" type="curve" smooth="yes"/>
      <point x="375" y="213"/>
      <point x="375" y="280"/>
      <point x="361" y="349" type="curve" smooth="yes"/>
      <point x="347" y="415"/>
      <point x="435" y="433"/>
      <point x="449" y="367" type="curve" smooth="yes"/>
      <point x="465" y="292"/>
      <point x="465" y="222"/>
      <point x="465" y="128" type="curve" smooth="yes"/>
      <point x="465" y="-30"/>
      <point x="382" y="-131"/>
      <point x="282" y="-131" type="curve" smooth="yes"/>
      <point x="181" y="-131"/>
      <point x="99" y="-30"/>
      <point x="99" y="128" type="curve" smooth="yes"/>
      <point x="99" y="275"/>
      <point x="201" y="336"/>
      <point x="267" y="372" type="curve" smooth="yes"/>
      <point x="348" y="417"/>
      <point x="396" y="431"/>
      <point x="383" y="213" type="curve" smooth="yes"/>
      <point x="379" y="134"/>
      <point x="380" y="42"/>
      <point x="380" y="-8" type="curve" smooth="yes"/>
      <point x="380" y="-45"/>
      <point x="383" y="-85"/>
      <point x="393" y="-136" type="curve" smooth="yes"/>
      <point x="406" y="-202"/>
      <point x="318" y="-220"/>
    </contour>
  </outline>
</glyph>
<glyph name="r" format="2">
  <advance width="275"/>
  <unicode hex="0072"/>
  <outline>
    <contour>
      <point x="313" y="361" type="curve" smooth="yes"/>
      <point x="267" y="309"/>
      <point x="208" y="246"/>
      <point x="208" y="142" type="curve" smooth="yes"/>
      <point x="208" y="112"/>
      <point x="212" y="46"/>
      <point x="212" y="9" type="curve" smooth="yes"/>
      <point x="212" y="-182"/>
      <point x="52" y="-85"/>
      <point x="38" y="121" type="curve" smooth="yes"/>
      <point x="34" y="174"/>
      <point x="34" y="233"/>
      <point x="38" y="273" type="curve" smooth="yes"/>
      <point x="43" y="321"/>
      <point x="59" y="355"/>
      <point x="38" y="438" type="curve" smooth="yes"/>
      <point x="22" y="504"/>
      <point x="109" y="525"/>
      <point x="126" y="460" type="curve" smooth="yes"/>
      <point x="151" y="358"/>
      <point x="133" y="323"/>
      <point x="128" y="263" type="curve" smooth="yes"/>
      <point x="124" y="229"/>
      <point x="124" y="174"/>
      <point x="128" y="127" type="curve" smooth="yes"/>
      <point x="129" y="117"/>
      <point x="122" y="0"/>
      <point x="122" y="9" type="curve" smooth="yes"/>
      <point x="122" y="44"/>
      <point x="118" y="110"/>
      <point x="118" y="142" type="curve" smooth="yes"/>
      <point x="118" y="274"/>
      <point x="187" y="355"/>
      <point x="245" y="421" type="curve" smooth="yes"/>
      <point x="290" y="471"/>
      <point x="357" y="412"/>
    </contour>
  </outline>
</glyph>
<glyph name="u" format="2">
  <advance width="402"/>
  <unicode hex="0075"/>
  <outline>
    <contour>
      <point x="187" y="365" type="curve" smooth="yes"/>
      <point x="206" y="253"/>
      <point x="202" y="174"/>
      <point x="202" y="87" type="curve" smooth="yes"/>
      <point x="202" y="13"/>
      <point x="223" y="-41"/>
      <point x="268" y="-41" type="curve" smooth="yes"/>
      <point x="325" y="-41"/>
      <point x="364" y="32"/>
      <point x="364" y="104" type="curve" smooth="yes"/>
      <point x="364" y="152"/>
      <point x="364" y="222"/>
      <point x="364" y="253" type="curve" smooth="yes"/>
      <point x="364" y="262"/>
      <point x="369" y="382"/>
      <point x="369" y="373" type="curve" smooth="yes"/>
      <point x="369" y="306"/>
      <point x="369" y="214"/>
      <point x="369" y="153" type="curve" smooth="yes"/>
      <point x="369" y="106"/>
      <point x="369" y="63"/>
      <point x="360" y="33" type="curve" smooth="yes"/>
      <point x="342" y="-32"/>
      <point x="255" y="-8"/>
      <point x="274" y="57" type="curve" smooth="yes"/>
      <point x="279" y="77"/>
      <point x="279" y="123"/>
      <point x="279" y="153" type="curve" smooth="yes"/>
      <point x="279" y="243"/>
      <point x="279" y="328"/>
      <point x="279" y="373" type="curve" smooth="yes"/>
      <point x="279" y="562"/>
      <point x="454" y="442"/>
      <point x="454" y="253" type="curve" smooth="yes"/>
      <point x="454" y="207"/>
      <point x="454" y="136"/>
      <point x="454" y="104" type="curve" smooth="yes"/>
      <point x="454" y="-27"/>
      <point x="372" y="-131"/>
      <point x="268" y="-131" type="curve" smooth="yes"/>
      <point x="179" y="-131"/>
      <point x="112" y="-58"/>
      <point x="112" y="87" type="curve" smooth="yes"/>
      <point x="112" y="168"/>
      <point x="116" y="245"/>
      <point x="99" y="351" type="curve" smooth="yes"/>
      <point x="88" y="417"/>
      <point x="176" y="432"/>
    </contour>
  </outline>
</glyph>
<glyph name="v" format="2">
  <advance width="345"/>
  <unicode hex="0076"/>
  <outline>
    <contour>
      <point x="154" y="379" type="curve" smooth="yes"/>
      <point x="186" y="294"/>
      <point x="199" y="252"/>
      <point x="209" y="216" type="curve" smooth="yes"/>
      <point x="231" y="137"/>
      <point x="244" y="88"/>
      <point x="267" y="10" type="curve" smooth="yes"/>
      <point x="270" y="2"/>
      <point x="211" y="51"/>
      <point x="214" y="59" type="curve" smooth="yes"/>
      <point x="238" y="148"/>
      <point x="285" y="166"/>
      <point x="309" y="227" type="curve" smooth="yes"/>
      <point x="320" y="253"/>
      <point x="323" y="298"/>
      <point x="323" y="363" type="curve" smooth="yes"/>
      <point x="323" y="431"/>
      <point x="413" y="431"/>
      <point x="413" y="363" type="curve" smooth="yes"/>
      <point x="413" y="273"/>
      <point x="407" y="228"/>
      <point x="393" y="193" type="curve" smooth="yes"/>
      <point x="361" y="115"/>
      <point x="320" y="104"/>
      <point x="300" y="35" type="curve" smooth="yes"/>
      <point x="254" y="-132"/>
      <point x="232" y="-190"/>
      <point x="181" y="-16" type="curve" smooth="yes"/>
      <point x="158" y="63"/>
      <point x="145" y="113"/>
      <point x="123" y="192" type="curve" smooth="yes"/>
      <point x="113" y="226"/>
      <point x="100" y="266"/>
      <point x="70" y="347" type="curve" smooth="yes"/>
      <point x="46" y="410"/>
      <point x="131" y="442"/>
    </contour>
  </outline>
</glyph>
<glyph name="y" format="2">
  <advance width="346"/>
  <unicode hex="0079"/>
  <outline>
    <contour>
      <point x="73" y="-111" type="curve" smooth="yes"/>
      <point x="83" y="-81"/>
      <point x="94" y="-48"/>
      <point x="103" y="-17" type="curve" smooth="yes"/>
      <point x="109" y="1"/>
      <point x="115" y="20"/>
      <point x="119" y="34" type="curve"/>
      <point x="136" y="86"/>
      <point x="141" y="88"/>
      <point x="145" y="129" type="curve" smooth="yes"/>
      <point x="147" y="142"/>
      <point x="101" y="283"/>
      <point x="88" y="324" type="curve" smooth="yes"/>
      <point x="68" y="389"/>
      <point x="153" y="416"/>
      <point x="174" y="352" type="curve" smooth="yes"/>
      <point x="211" y="236"/>
      <point x="239" y="153"/>
      <point x="235" y="119" type="curve" smooth="yes"/>
      <point x="229" y="68"/>
      <point x="226" y="71"/>
      <point x="205" y="10" type="curve"/>
      <point x="201" y="-6"/>
      <point x="195" y="-23"/>
      <point x="189" y="-43" type="curve" smooth="yes"/>
      <point x="180" y="-74"/>
      <point x="169" y="-109"/>
      <point x="159" y="-139" type="curve" smooth="yes"/>
      <point x="137" y="-203"/>
      <point x="52" y="-175"/>
    </contour>
    <contour>
      <point x="417" y="357" type="curve" smooth="yes"/>
      <point x="416" y="284"/>
      <point x="396" y="220"/>
      <point x="384" y="183" type="curve" smooth="yes"/>
      <point x="354" y="86"/>
      <point x="310" y="-49"/>
      <point x="290" y="-112" type="curve" smooth="yes"/>
      <point x="284" y="-130"/>
      <point x="279" y="-148"/>
      <point x="273" y="-168" type="curve" smooth="yes"/>
      <point x="263" y="-198"/>
      <point x="254" y="-229"/>
      <point x="244" y="-259" type="curve" smooth="yes"/>
      <point x="222" y="-323"/>
      <point x="137" y="-295"/>
      <point x="158" y="-231" type="curve" smooth="yes"/>
      <point x="168" y="-201"/>
      <point x="177" y="-170"/>
      <point x="187" y="-140" type="curve" smooth="yes"/>
      <point x="193" y="-122"/>
      <point x="198" y="-104"/>
      <point x="204" y="-84" type="curve" smooth="yes"/>
      <point x="224" y="-21"/>
      <point x="268" y="112"/>
      <point x="298" y="211" type="curve" smooth="yes"/>
      <point x="308" y="242"/>
      <point x="326" y="298"/>
      <point x="327" y="359" type="curve" smooth="yes"/>
      <point x="328" y="426"/>
      <point x="418" y="425"/>
    </contour>
  </outline>
</glyph>
<glyph name="currency" format="2">
  <advance width="456"/>
  <unicode hex="00A4"/>
  <outline>
    <contour>
      <point x="252" y="29" type="curve" smooth="yes"/>
      <point x="195" y="57"/>
      <point x="153" y="127"/>
      <point x="153" y="225" type="curve" smooth="yes"/>
      <point x="153" y="352"/>
      <point x="222" y="434"/>
      <point x="311" y="434" type="curve" smooth="yes"/>
      <point x="401" y="434"/>
      <point x="472" y="352"/>
      <point x="472" y="225" type="curve" smooth="yes"/>
      <point x="472" y="127"/>
      <point x="429" y="56"/>
      <point x="371" y="29" type="curve" smooth="yes"/>
      <point x="310" y="1"/>
      <point x="272" y="82"/>
      <point x="333" y="111" type="curve" smooth="yes"/>
      <point x="364" y="125"/>
      <point x="382" y="173"/>
      <point x="382" y="225" type="curve" smooth="yes"/>
      <point x="382" y="288"/>
      <point x="356" y="344"/>
      <point x="311" y="344" type="curve" smooth="yes"/>
      <point x="267" y="344"/>
      <point x="243" y="288"/>
      <point x="243" y="225" type="curve" smooth="yes"/>
      <point x="243" y="173"/>
      <point x="260" y="125"/>
      <point x="290" y="111" type="curve" smooth="yes"/>
      <point x="351" y="82"/>
      <point x="313" y="0"/>
    </contour>
    <contour>
      <point x="119" y="419" type="curve" smooth="yes"/>
      <point x="98" y="449"/>
      <point x="80" y="475"/>
      <point x="54" y="510" type="curve" smooth="yes"/>
      <point x="15" y="565"/>
      <point x="88" y="617"/>
      <point x="128" y="562" type="curve" smooth="yes"/>
      <point x="152" y="528"/>
      <point x="172" y="501"/>
      <point x="193" y="471" type="curve" smooth="yes"/>
      <point x="232" y="416"/>
      <point x="158" y="364"/>
    </contour>
    <contour>
      <point x="444" y="509" type="curve" smooth="yes"/>
      <point x="430" y="490"/>
      <point x="410" y="427"/>
      <point x="362" y="404" type="curve" smooth="yes"/>
      <point x="301" y="376"/>
      <point x="263" y="457"/>
      <point x="324" y="486" type="curve" smooth="yes"/>
      <point x="342" y="494"/>
      <point x="334" y="511"/>
      <point x="372" y="563" type="curve" smooth="yes"/>
      <point x="412" y="617"/>
      <point x="484" y="564"/>
    </contour>
    <contour>
      <point x="55" y="116" type="curve" smooth="yes"/>
      <point x="84" y="156"/>
      <point x="104" y="159"/>
      <point x="112" y="192" type="curve" smooth="yes"/>
      <point x="128" y="257"/>
      <point x="216" y="236"/>
      <point x="200" y="170" type="curve" smooth="yes"/>
      <point x="186" y="112"/>
      <point x="145" y="87"/>
      <point x="129" y="64" type="curve" smooth="yes"/>
      <point x="90" y="9"/>
      <point x="16" y="61"/>
    </contour>
    <contour>
      <point x="379" y="207" type="curve" smooth="yes"/>
      <point x="408" y="167"/>
      <point x="427" y="141"/>
      <point x="445" y="116" type="curve" smooth="yes"/>
      <point x="484" y="62"/>
      <point x="411" y="9"/>
      <point x="371" y="64" type="curve" smooth="yes"/>
      <point x="354" y="89"/>
      <point x="336" y="114"/>
      <point x="307" y="155" type="curve" smooth="yes"/>
      <point x="267" y="209"/>
      <point x="340" y="262"/>
    </contour>
  </outline>
</glyph>
<glyph name="section" format="2">
  <advance width="357"/>
  <unicode hex="00A7"/>
  <outline>
    <contour>
      <point x="365" y="491" type="curve" smooth="yes"/>
      <point x="339" y="476"/>
      <point x="319" y="480"/>
      <point x="273" y="480" type="curve" smooth="yes"/>
      <point x="237" y="480"/>
      <point x="223" y="461"/>
      <point x="227" y="421" type="curve" smooth="yes"/>
      <point x="232" y="362"/>
      <point x="276" y="338"/>
      <point x="320" y="308" type="curve" smooth="yes"/>
      <point x="391" y="260"/>
      <point x="457" y="212"/>
      <point x="457" y="120" type="curve" smooth="yes"/>
      <point x="457" y="37"/>
      <point x="396" y="-30"/>
      <point x="299" y="-33" type="curve" smooth="yes"/>
      <point x="232" y="-35"/>
      <point x="229" y="55"/>
      <point x="297" y="57" type="curve" smooth="yes"/>
      <point x="340" y="58"/>
      <point x="367" y="83"/>
      <point x="367" y="120" type="curve" smooth="yes"/>
      <point x="367" y="172"/>
      <point x="310" y="207"/>
      <point x="270" y="234" type="curve" smooth="yes"/>
      <point x="199" y="281"/>
      <point x="146" y="320"/>
      <point x="137" y="411" type="curve" smooth="yes"/>
      <point x="127" y="509"/>
      <point x="187" y="570"/>
      <point x="273" y="570" type="curve" smooth="yes"/>
      <point x="275" y="570"/>
      <point x="318" y="568"/>
      <point x="319" y="569" type="curve" smooth="yes"/>
      <point x="377" y="603"/>
      <point x="423" y="526"/>
    </contour>
    <contour>
      <point x="173" y="-82" type="curve" smooth="yes"/>
      <point x="208" y="-109"/>
      <point x="241" y="-127"/>
      <point x="262" y="-127" type="curve" smooth="yes"/>
      <point x="289" y="-127"/>
      <point x="290" y="-60"/>
      <point x="287" y="-33" type="curve" smooth="yes"/>
      <point x="282" y="18"/>
      <point x="239" y="34"/>
      <point x="202" y="53" type="curve" smooth="yes"/>
      <point x="133" y="87"/>
      <point x="69" y="128"/>
      <point x="69" y="223" type="curve" smooth="yes"/>
      <point x="69" y="298"/>
      <point x="121" y="367"/>
      <point x="182" y="405" type="curve" smooth="yes"/>
      <point x="239" y="441"/>
      <point x="287" y="365"/>
      <point x="230" y="329" type="curve" smooth="yes"/>
      <point x="195" y="307"/>
      <point x="159" y="266"/>
      <point x="159" y="223" type="curve" smooth="yes"/>
      <point x="159" y="171"/>
      <point x="205" y="152"/>
      <point x="242" y="133" type="curve" smooth="yes"/>
      <point x="308" y="100"/>
      <point x="367" y="67"/>
      <point x="377" y="-23" type="curve" smooth="yes"/>
      <point x="387" y="-117"/>
      <point x="356" y="-217"/>
      <point x="262" y="-217" type="curve" smooth="yes"/>
      <point x="226" y="-217"/>
      <point x="180" y="-201"/>
      <point x="117" y="-152" type="curve" smooth="yes"/>
      <point x="64" y="-111"/>
      <point x="119" y="-40"/>
    </contour>
  </outline>
</glyph>
<glyph name="dieresis" format="2">
  <advance width="409"/>
  <unicode hex="00A8"/>
  <outline>
    <contour>
      <point x="126" y="592" type="curve" smooth="yes"/>
      <point x="54" y="607"/>
      <point x="54" y="709"/>
      <point x="126" y="724" type="curve" smooth="yes"/>
      <point x="192" y="738"/>
      <point x="210" y="650"/>
      <point x="144" y="636" type="curve" smooth="yes"/>
      <point x="142" y="636"/>
      <point x="142" y="680"/>
      <point x="144" y="680" type="curve" smooth="yes"/>
      <point x="210" y="666"/>
      <point x="192" y="578"/>
    </contour>
    <contour>
      <point x="281" y="592" type="curve" smooth="yes"/>
      <point x="209" y="607"/>
      <point x="209" y="709"/>
      <point x="281" y="724" type="curve" smooth="yes"/>
      <point x="347" y="738"/>
      <point x="365" y="650"/>
      <point x="299" y="636" type="curve" smooth="yes"/>
      <point x="297" y="636"/>
      <point x="297" y="680"/>
      <point x="299" y="680" type="curve" smooth="yes"/>
      <point x="365" y="666"/>
      <point x="347" y="578"/>
    </contour>
  </outline>
</glyph>
<glyph name="degree" format="2">
  <advance width="376"/>
  <unicode hex="00B0"/>
  <outline>
    <contour>
      <point x="210" y="191" type="curve" smooth="yes"/>
      <point x="160" y="193"/>
      <point x="114" y="240"/>
      <point x="114" y="361" type="curve" smooth="yes"/>
      <point x="114" y="488"/>
      <point x="183" y="570"/>
      <point x="272" y="570" type="curve" smooth="yes"/>
      <point x="361" y="570"/>
      <point x="432" y="488"/>
      <point x="432" y="361" type="curve" smooth="yes"/>
      <point x="432" y="256"/>
      <point x="374" y="192"/>
      <point x="293" y="191" type="curve" smooth="yes"/>
      <point x="225" y="190"/>
      <point x="224" y="280"/>
      <point x="291" y="281" type="curve" smooth="yes"/>
      <point x="327" y="282"/>
      <point x="342" y="315"/>
      <point x="342" y="361" type="curve" smooth="yes"/>
      <point x="342" y="424"/>
      <point x="316" y="480"/>
      <point x="272" y="480" type="curve" smooth="yes"/>
      <point x="228" y="480"/>
      <point x="204" y="424"/>
      <point x="204" y="361" type="curve" smooth="yes"/>
      <point x="204" y="355"/>
      <point x="210" y="281"/>
      <point x="212" y="281" type="curve" smooth="yes"/>
      <point x="280" y="279"/>
      <point x="277" y="189"/>
    </contour>
  </outline>
</glyph>
<glyph name="ordmasculine" format="2">
  <advance width="348"/>
  <unicode hex="00BA"/>
  <outline>
    <contour>
      <point x="383" y="55" type="curve" smooth="yes"/>
      <point x="343" y="-12"/>
      <point x="259" y="-29"/>
      <point x="126" y="38" type="curve" smooth="yes"/>
      <point x="66" y="68"/>
      <point x="106" y="148"/>
      <point x="166" y="118" type="curve" smooth="yes"/>
      <point x="226" y="88"/>
      <point x="287" y="71"/>
      <point x="305" y="101" type="curve" smooth="yes"/>
      <point x="340" y="159"/>
      <point x="417" y="113"/>
    </contour>
    <contour>
      <point x="261" y="328" type="curve" smooth="yes"/>
      <point x="286" y="336"/>
      <point x="310" y="349"/>
      <point x="313" y="382" type="curve" smooth="yes"/>
      <point x="317" y="424"/>
      <point x="292" y="480"/>
      <point x="259" y="480" type="curve" smooth="yes"/>
      <point x="227" y="480"/>
      <point x="208" y="416"/>
      <point x="205" y="374" type="curve" smooth="yes"/>
      <point x="204" y="366"/>
      <point x="202" y="327"/>
      <point x="206" y="325" type="curve" smooth="yes"/>
      <point x="266" y="295"/>
      <point x="226" y="215"/>
      <point x="166" y="245" type="curve" smooth="yes"/>
      <point x="126" y="265"/>
      <point x="109" y="298"/>
      <point x="115" y="382" type="curve" smooth="yes"/>
      <point x="124" y="488"/>
      <point x="178" y="570"/>
      <point x="259" y="570" type="curve" smooth="yes"/>
      <point x="341" y="570"/>
      <point x="411" y="480"/>
      <point x="403" y="374" type="curve" smooth="yes"/>
      <point x="396" y="299"/>
      <point x="343" y="258"/>
      <point x="287" y="242" type="curve" smooth="yes"/>
      <point x="222" y="223"/>
      <point x="197" y="309"/>
    </contour>
  </outline>
</glyph>
<glyph name="questiondown" format="2">
  <advance width="361"/>
  <unicode hex="00BF"/>
  <outline>
    <contour>
      <point x="414" y="-191" type="curve" smooth="yes"/>
      <point x="368" y="-218"/>
      <point x="323" y="-229"/>
      <point x="283" y="-229" type="curve" smooth="yes"/>
      <point x="183" y="-229"/>
      <point x="106" y="-157"/>
      <point x="106" y="-50" type="curve" smooth="yes"/>
      <point x="106" y="20"/>
      <point x="142" y="83"/>
      <point x="203" y="120" type="curve" smooth="yes"/>
      <point x="247" y="146"/>
      <point x="248" y="159"/>
      <point x="248" y="193" type="curve" smooth="yes"/>
      <point x="248" y="261"/>
      <point x="338" y="261"/>
      <point x="338" y="193" type="curve" smooth="yes"/>
      <point x="338" y="133"/>
      <point x="326" y="88"/>
      <point x="249" y="42" type="curve" smooth="yes"/>
      <point x="216" y="23"/>
      <point x="196" y="-12"/>
      <point x="196" y="-50" type="curve" smooth="yes"/>
      <point x="196" y="-105"/>
      <point x="231" y="-139"/>
      <point x="283" y="-139" type="curve" smooth="yes"/>
      <point x="309" y="-139"/>
      <point x="338" y="-130"/>
      <point x="368" y="-113" type="curve" smooth="yes"/>
      <point x="427" y="-79"/>
      <point x="472" y="-157"/>
    </contour>
    <contour>
      <point x="338" y="423" type="curve" smooth="yes"/>
      <point x="338" y="406"/>
      <point x="338" y="381"/>
      <point x="338" y="369" type="curve" smooth="yes"/>
      <point x="338" y="302"/>
      <point x="248" y="302"/>
      <point x="248" y="369" type="curve" smooth="yes"/>
      <point x="248" y="387"/>
      <point x="248" y="412"/>
      <point x="248" y="423" type="curve" smooth="yes"/>
      <point x="248" y="491"/>
      <point x="338" y="491"/>
    </contour>
  </outline>
</glyph>
<glyph name="multiply" format="2">
  <advance width="365"/>
  <unicode hex="00D7"/>
  <outline>
    <contour>
      <point x="118" y="478" type="curve" smooth="yes"/>
      <point x="322" y="190" type="line" smooth="yes"/>
      <point x="361" y="135"/>
      <point x="287" y="83"/>
      <point x="248" y="138" type="curve" smooth="yes"/>
      <point x="44" y="426" type="line" smooth="yes"/>
      <point x="5" y="481"/>
      <point x="79" y="533"/>
    </contour>
    <contour>
      <point x="322" y="426" type="curve" smooth="yes"/>
      <point x="118" y="138" type="line" smooth="yes"/>
      <point x="79" y="83"/>
      <point x="5" y="135"/>
      <point x="44" y="190" type="curve" smooth="yes"/>
      <point x="248" y="478" type="line" smooth="yes"/>
      <point x="287" y="533"/>
      <point x="361" y="481"/>
    </contour>
  </outline>
</glyph>
<glyph name="dotlessi" format="2">
  <advance width="163"/>
  <unicode hex="0131"/>
  <outline>
    <contour>
      <point x="36" y="40" type="curve" smooth="yes"/>
      <point x="36" y="458" type="line" smooth="yes"/>
      <point x="36" y="526"/>
      <point x="126" y="526"/>
      <point x="126" y="458" type="curve" smooth="yes"/>
      <point x="126" y="40" type="line" smooth="yes"/>
      <point x="126" y="-28"/>
      <point x="36" y="-27"/>
    </contour>
  </outline>
</glyph>
<glyph name="OE" format="2">
  <advance width="659"/>
  <unicode hex="0152"/>
  <outline>
    <contour>
      <point x="683" y="257" type="curve" smooth="yes"/>
      <point x="679" y="198"/>
      <point x="635" y="185"/>
      <point x="588" y="185" type="curve" smooth="yes"/>
      <point x="560" y="185"/>
      <point x="537" y="185"/>
      <point x="518" y="185" type="curve" smooth="yes"/>
      <point x="449" y="185"/>
      <point x="418" y="202"/>
      <point x="418" y="298" type="curve" smooth="yes"/>
      <point x="418" y="324"/>
      <point x="418" y="341"/>
      <point x="418" y="356" type="curve" smooth="yes"/>
      <point x="418" y="365"/>
      <point x="423" y="484"/>
      <point x="423" y="476" type="curve" smooth="yes"/>
      <point x="423" y="368"/>
      <point x="423" y="168"/>
      <point x="423" y="125" type="curve" smooth="yes"/>
      <point x="423" y="103"/>
      <point x="421" y="90"/>
      <point x="437" y="90" type="curve" smooth="yes"/>
      <point x="483" y="90"/>
      <point x="502" y="90"/>
      <point x="529" y="90" type="curve" smooth="yes"/>
      <point x="671" y="90"/>
      <point x="757" y="-120"/>
      <point x="613" y="-120" type="curve" smooth="yes"/>
      <point x="502" y="-120"/>
      <point x="412" y="-120"/>
      <point x="338" y="-120" type="curve" smooth="yes"/>
      <point x="202" y="-120"/>
      <point x="103" y="15"/>
      <point x="103" y="219" type="curve" smooth="yes"/>
      <point x="103" y="424"/>
      <point x="200" y="560"/>
      <point x="337" y="560" type="curve" smooth="yes"/>
      <point x="438" y="560"/>
      <point x="519" y="560"/>
      <point x="588" y="560" type="curve" smooth="yes"/>
      <point x="590" y="560"/>
      <point x="608" y="553"/>
      <point x="608" y="555" type="curve" smooth="yes"/>
      <point x="624" y="621"/>
      <point x="711" y="601"/>
      <point x="696" y="535" type="curve" smooth="yes"/>
      <point x="683" y="481"/>
      <point x="640" y="470"/>
      <point x="588" y="470" type="curve" smooth="yes"/>
      <point x="486" y="470"/>
      <point x="405" y="470"/>
      <point x="337" y="470" type="curve" smooth="yes"/>
      <point x="245" y="470"/>
      <point x="193" y="356"/>
      <point x="193" y="219" type="curve" smooth="yes"/>
      <point x="193" y="83"/>
      <point x="247" y="-30"/>
      <point x="338" y="-30" type="curve" smooth="yes"/>
      <point x="449" y="-30"/>
      <point x="539" y="-30"/>
      <point x="613" y="-30" type="curve" smooth="yes"/>
      <point x="619" y="-30"/>
      <point x="535" y="0"/>
      <point x="529" y="0" type="curve" smooth="yes"/>
      <point x="489" y="0"/>
      <point x="468" y="0"/>
      <point x="437" y="0" type="curve" smooth="yes"/>
      <point x="374" y="0"/>
      <point x="333" y="36"/>
      <point x="333" y="125" type="curve" smooth="yes"/>
      <point x="333" y="190"/>
      <point x="333" y="403"/>
      <point x="333" y="476" type="curve" smooth="yes"/>
      <point x="333" y="652"/>
      <point x="508" y="551"/>
      <point x="508" y="356" type="curve" smooth="yes"/>
      <point x="508" y="334"/>
      <point x="508" y="315"/>
      <point x="508" y="298" type="curve" smooth="yes"/>
      <point x="508" y="279"/>
      <point x="504" y="275"/>
      <point x="518" y="275" type="curve" smooth="yes"/>
      <point x="546" y="275"/>
      <point x="569" y="275"/>
      <point x="588" y="275" type="curve" smooth="yes"/>
      <point x="590" y="275"/>
      <point x="593" y="261"/>
      <point x="593" y="263" type="curve" smooth="yes"/>
      <point x="598" y="330"/>
      <point x="687" y="324"/>
    </contour>
  </outline>
</glyph>
<glyph name="circumflex" format="2">
  <advance width="398"/>
  <unicode hex="02C6"/>
  <outline>
    <contour>
      <point x="78" y="632" type="curve" smooth="yes"/>
      <point x="164" y="738" type="line" smooth="yes"/>
      <point x="182" y="761"/>
      <point x="216" y="761"/>
      <point x="234" y="738" type="curve" smooth="yes"/>
      <point x="320" y="632" type="line" smooth="yes"/>
      <point x="362" y="580"/>
      <point x="293" y="523"/>
      <point x="250" y="576" type="curve" smooth="yes"/>
      <point x="164" y="682" type="line"/>
      <point x="234" y="682" type="line"/>
      <point x="148" y="576" type="line" smooth="yes"/>
      <point x="105" y="523"/>
      <point x="36" y="580"/>
    </contour>
  </outline>
</glyph>
<glyph name="ring" format="2">
  <advance width="296"/>
  <unicode hex="02DA"/>
  <outline>
    <contour>
      <point x="165" y="436" type="curve" smooth="yes"/>
      <point x="141" y="458"/>
      <point x="126" y="493"/>
      <point x="126" y="540" type="curve" smooth="yes"/>
      <point x="126" y="617"/>
      <point x="173" y="664"/>
      <point x="232" y="664" type="curve" smooth="yes"/>
      <point x="305" y="664"/>
      <point x="347" y="601"/>
      <point x="324" y="543" type="curve" smooth="yes"/>
      <point x="310" y="510"/>
      <point x="279" y="486"/>
      <point x="240" y="480" type="curve" smooth="yes"/>
      <point x="173" y="468"/>
      <point x="158" y="557"/>
      <point x="224" y="568" type="curve" smooth="yes"/>
      <point x="230" y="569"/>
      <point x="238" y="573"/>
      <point x="240" y="577" type="curve" smooth="yes"/>
      <point x="241" y="579"/>
      <point x="235" y="574"/>
      <point x="232" y="574" type="curve" smooth="yes"/>
      <point x="220" y="574"/>
      <point x="216" y="556"/>
      <point x="216" y="540" type="curve" smooth="yes"/>
      <point x="216" y="528"/>
      <point x="218" y="509"/>
      <point x="225" y="504" type="curve" smooth="yes"/>
      <point x="275" y="459"/>
      <point x="216" y="392"/>
    </contour>
  </outline>
</glyph>
<glyph name="tilde" format="2">
  <advance width="399"/>
  <unicode hex="02DC"/>
  <outline>
    <contour>
      <point x="350" y="710" type="curve" smooth="yes"/>
      <point x="350" y="614"/>
      <point x="308" y="558"/>
      <point x="250" y="558" type="curve" smooth="yes"/>
      <point x="151" y="558"/>
      <point x="169" y="665"/>
      <point x="146" y="665" type="curve" smooth="yes"/>
      <point x="143" y="665"/>
      <point x="137" y="608"/>
      <point x="137" y="603" type="curve" smooth="yes"/>
      <point x="137" y="536"/>
      <point x="47" y="536"/>
      <point x="47" y="603" type="curve" smooth="yes"/>
      <point x="47" y="699"/>
      <point x="89" y="755"/>
      <point x="146" y="755" type="curve" smooth="yes"/>
      <point x="245" y="755"/>
      <point x="227" y="648"/>
      <point x="250" y="648" type="curve" smooth="yes"/>
      <point x="254" y="648"/>
      <point x="260" y="704"/>
      <point x="260" y="710" type="curve" smooth="yes"/>
      <point x="260" y="778"/>
      <point x="350" y="778"/>
    </contour>
  </outline>
</glyph>
<glyph name="emdash" format="2">
  <advance width="569"/>
  <unicode hex="2014"/>
  <outline>
    <contour>
      <point x="593" y="197" type="curve" smooth="yes"/>
      <point x="569" y="161"/>
      <point x="531" y="143"/>
      <point x="465" y="143" type="curve" smooth="yes"/>
      <point x="393" y="143"/>
      <point x="325" y="143"/>
      <point x="278" y="143" type="curve" smooth="yes"/>
      <point x="223" y="143"/>
      <point x="170" y="153"/>
      <point x="115" y="182" type="curve" smooth="yes"/>
      <point x="54" y="213"/>
      <point x="95" y="293"/>
      <point x="155" y="262" type="curve" smooth="yes"/>
      <point x="198" y="241"/>
      <point x="237" y="233"/>
      <point x="278" y="233" type="curve" smooth="yes"/>
      <point x="349" y="233"/>
      <point x="417" y="233"/>
      <point x="465" y="233" type="curve" smooth="yes"/>
      <point x="488" y="233"/>
      <point x="510" y="235"/>
      <point x="519" y="247" type="curve" smooth="yes"/>
      <point x="557" y="303"/>
      <point x="631" y="253"/>
    </contour>
  </outline>
</glyph>
<glyph name="bullet" format="2">
  <advance width="390"/>
  <unicode hex="2022"/>
  <outline>
    <contour>
      <point x="205" y="287" type="curve" smooth="yes"/>
      <point x="204" y="289"/>
      <point x="248" y="253"/>
      <point x="249" y="247" type="curve" smooth="yes"/>
      <point x="262" y="171"/>
      <point x="324" y="124"/>
      <point x="326" y="190" type="curve" smooth="yes"/>
      <point x="327" y="226"/>
      <point x="307" y="272"/>
      <point x="281" y="272" type="curve" smooth="yes"/>
      <point x="252" y="272"/>
      <point x="231" y="221"/>
      <point x="231" y="183" type="curve" smooth="yes"/>
      <point x="231" y="179"/>
      <point x="226" y="136"/>
      <point x="227" y="136" type="curve" smooth="yes"/>
      <point x="293" y="122"/>
      <point x="275" y="34"/>
      <point x="209" y="48" type="curve" smooth="yes"/>
      <point x="175" y="55"/>
      <point x="141" y="91"/>
      <point x="141" y="183" type="curve" smooth="yes"/>
      <point x="141" y="283"/>
      <point x="205" y="362"/>
      <point x="281" y="362" type="curve" smooth="yes"/>
      <point x="353" y="362"/>
      <point x="419" y="286"/>
      <point x="416" y="188" type="curve" smooth="yes"/>
      <point x="410" y="13"/>
      <point x="193" y="34"/>
      <point x="161" y="233" type="curve" smooth="yes"/>
      <point x="137" y="375"/>
      <point x="242" y="402"/>
      <point x="283" y="333" type="curve" smooth="yes"/>
      <point x="317" y="275"/>
      <point x="240" y="229"/>
    </contour>
  </outline>
</glyph>
<glyph name="four.superior" format="2">
  <advance width="306"/>
  <unicode hex="2074"/>
  <outline>
    <contour>
      <point x="268" y="339" type="curve" smooth="yes"/>
      <point x="219" y="339"/>
      <point x="161" y="359"/>
      <point x="124" y="359" type="curve" smooth="yes"/>
      <point x="46" y="359"/>
      <point x="35" y="362"/>
      <point x="74" y="460" type="curve" smooth="yes"/>
      <point x="85" y="489"/>
      <point x="84" y="513"/>
      <point x="87" y="552" type="curve" smooth="yes"/>
      <point x="93" y="630"/>
      <point x="150" y="651"/>
      <point x="205" y="627" type="curve" smooth="yes"/>
      <point x="242" y="611"/>
      <point x="328" y="544"/>
      <point x="328" y="470" type="curve" smooth="yes"/>
      <point x="328" y="426"/>
      <point x="328" y="411"/>
      <point x="328" y="395" type="curve" smooth="yes"/>
      <point x="328" y="321"/>
      <point x="328" y="247"/>
      <point x="328" y="191" type="curve" smooth="yes"/>
      <point x="328" y="124"/>
      <point x="238" y="124"/>
      <point x="238" y="191" type="curve" smooth="yes"/>
      <point x="238" y="274"/>
      <point x="238" y="345"/>
      <point x="238" y="395" type="curve" smooth="yes"/>
      <point x="238" y="419"/>
      <point x="238" y="441"/>
      <point x="238" y="470" type="curve" smooth="yes"/>
      <point x="238" y="495"/>
      <point x="182" y="539"/>
      <point x="169" y="545" type="curve" smooth="yes"/>
      <point x="167" y="546"/>
      <point x="177" y="548"/>
      <point x="177" y="544" type="curve" smooth="yes"/>
      <point x="172" y="490"/>
      <point x="173" y="469"/>
      <point x="158" y="428" type="curve" smooth="yes"/>
      <point x="156" y="423"/>
      <point x="121" y="449"/>
      <point x="124" y="449" type="curve" smooth="yes"/>
      <point x="173" y="449"/>
      <point x="231" y="429"/>
      <point x="268" y="429" type="curve" smooth="yes"/>
      <point x="336" y="429"/>
      <point x="336" y="339"/>
    </contour>
  </outline>
</glyph>
<glyph name="G" format="2">
  <advance width="475"/>
  <outline>
    <contour>
      <point x="520" y="601" type="curve" smooth="yes"/>
      <point x="520" y="601"/>
      <point x="508.6994546806469" y="585.5230594162327"/>
      <point x="505.6074429815252" y="586.2073283500457" type="curve" smooth="yes"/>
      <point x="392.461183102982" y="611.2468424741297"/>
      <point x="325.3063183837775" y="484.55342803434064"/>
      <point x="325.3240308104107" y="341.0323492234009" type="curve" smooth="yes"/>
      <point x="325.34010492520906" y="210.78626015952767"/>
      <point x="374" y="90"/>
      <point x="461" y="90" type="curve"/>
      <point x="479" y="90"/>
      <point x="504.24406091296976" y="94.86529208663418"/>
      <point x="519.07058995719" y="102.49045823766957" type="curve" smooth="yes"/>
      <point x="543.7185252075021" y="115.16669560941362"/>
      <point x="549.2044547454393" y="134.25650654305608"/>
      <point x="549.2001644626565" y="169.02001050158447" type="curve" smooth="yes"/>
      <point x="549.1909084565823" y="244.02000935926912" type="line" smooth="yes"/>
      <point x="549.1889093923994" y="260.21812010124455"/>
      <point x="533.2222122872722" y="270.0174522262704"/>
      <point x="519.2784629207348" y="270.0174522262704" type="curve" smooth="yes"/>
      <point x="435.83986274072214" y="270.0174522262704" type="line" smooth="yes"/>
      <point x="360.83986274072214" y="270.0174522262704"/>
      <point x="360.83986274072214" y="370.0174522262704"/>
      <point x="435.83986274072214" y="370.0174522262704" type="curve" smooth="yes"/>
      <point x="519.2784629207348" y="370.0174522262704" type="line" smooth="yes"/>
      <point x="584.4074240570352" y="370.0174522262704"/>
      <point x="649.1815703948594" y="319.69106323670445"/>
      <point x="649.1909076950387" y="244.03235070079535" type="curve" smooth="yes"/>
      <point x="649.200163701113" y="169.03235184311063" type="line" smooth="yes"/>
      <point x="649.2098315309846" y="90.69540786143033"/>
      <point x="620.3481074311054" y="42.12685589144982"/>
      <point x="564.8058374323381" y="13.561907488278884" type="curve" smooth="yes"/>
      <point x="536.0736812594624" y="-1.2148122714329788"/>
      <point x="496" y="-10"/>
      <point x="461" y="-10" type="curve"/>
      <point x="322" y="-10"/>
      <point x="225.34960125446088" y="133.83278874834633"/>
      <point x="225.32403157195427" y="341.0200078818746" type="curve" smooth="yes"/>
      <point x="225.2967583488069" y="562.010755781262"/>
      <point x="352.99463849633446" y="722.4003386360083"/>
      <point x="527.2148770824436" y="683.8450197994777" type="curve" smooth="yes"/>
      <point x="609.300004458602" y="665.679402053748"/>
      <point x="617.8355464713501" y="625.4512909081843"/>
      <point x="619.2532998074025" y="609.4276715544765" type="curve" smooth="yes"/>
      <point x="625.8633993231798" y="534.7195288631239"/>
      <point x="526" y="526"/>
    </contour>
  </outline>
</glyph>
<glyph name="acute.cap" format="2">
  <advance width="288"/>
  <outline>
    <contour>
      <point x="302" y="750" type="curve" smooth="yes"/>
      <point x="238" y="644" type="line" smooth="yes"/>
      <point x="203" y="586"/>
      <point x="126" y="632"/>
      <point x="160" y="690" type="curve" smooth="yes"/>
      <point x="224" y="796" type="line" smooth="yes"/>
      <point x="259" y="854"/>
      <point x="336" y="808"/>
    </contour>
  </outline>
</glyph>
<glyph name="dieresis.cap" format="2">
  <advance width="409"/>
  <outline>
    <contour>
      <point x="211" y="655" type="curve" smooth="yes"/>
      <point x="139" y="670"/>
      <point x="139" y="772"/>
      <point x="211" y="787" type="curve" smooth="yes"/>
      <point x="277" y="801"/>
      <point x="295" y="713"/>
      <point x="229" y="699" type="curve" smooth="yes"/>
      <point x="227" y="699"/>
      <point x="227" y="743"/>
      <point x="229" y="743" type="curve" smooth="yes"/>
      <point x="295" y="729"/>
      <point x="277" y="641"/>
    </contour>
    <contour>
      <point x="366" y="655" type="curve" smooth="yes"/>
      <point x="294" y="670"/>
      <point x="294" y="772"/>
      <point x="366" y="787" type="curve" smooth="yes"/>
      <point x="432" y="801"/>
      <point x="450" y="713"/>
      <point x="384" y="699" type="curve" smooth="yes"/>
      <point x="382" y="699"/>
      <point x="382" y="743"/>
      <point x="384" y="743" type="curve" smooth="yes"/>
      <point x="450" y="729"/>
      <point x="432" y="641"/>
    </contour>
  </outline>
</glyph>
<glyph name="macron.cap" format="2">
  <advance width="346"/>
  <outline>
    <contour>
      <point x="346" y="666" type="curve" smooth="yes"/>
      <point x="169" y="666" type="line" smooth="yes"/>
      <point x="102" y="666"/>
      <point x="102" y="756"/>
      <point x="169" y="756" type="curve" smooth="yes"/>
      <point x="346" y="756" type="line" smooth="yes"/>
      <point x="414" y="756"/>
      <point x="414" y="666"/>
    </contour>
  </outline>
</glyph>
<glyph name="ring.cap" format="2">
  <advance width="296"/>
  <outline>
    <contour>
      <point x="232" y="684" type="curve" smooth="yes"/>
      <point x="246" y="684"/>
      <point x="251" y="704"/>
      <point x="251" y="723" type="curve" smooth="yes"/>
      <point x="251" y="741"/>
      <point x="246" y="757"/>
      <point x="232" y="757" type="curve" smooth="yes"/>
      <point x="220" y="757"/>
      <point x="216" y="739"/>
      <point x="216" y="723" type="curve" smooth="yes"/>
      <point x="216" y="706"/>
      <point x="220" y="684"/>
    </contour>
    <contour>
      <point x="232" y="594" type="curve" smooth="yes"/>
      <point x="172" y="594"/>
      <point x="126" y="642"/>
      <point x="126" y="723" type="curve" smooth="yes"/>
      <point x="126" y="800"/>
      <point x="173" y="847"/>
      <point x="232" y="847" type="curve" smooth="yes"/>
      <point x="292" y="847"/>
      <point x="341" y="799"/>
      <point x="341" y="723" type="curve" smooth="yes"/>
      <point x="341" y="643"/>
      <point x="293" y="594"/>
    </contour>
  </outline>
</glyph>
<glyph name="tilde.cap" format="2">
  <advance width="399"/>
  <outline>
    <contour>
      <point x="435" y="773" type="curve" smooth="yes"/>
      <point x="435" y="677"/>
      <point x="393" y="621"/>
      <point x="335" y="621" type="curve" smooth="yes"/>
      <point x="236" y="621"/>
      <point x="254" y="728"/>
      <point x="231" y="728" type="curve" smooth="yes"/>
      <point x="228" y="728"/>
      <point x="222" y="671"/>
      <point x="222" y="666" type="curve" smooth="yes"/>
      <point x="222" y="599"/>
      <point x="132" y="599"/>
      <point x="132" y="666" type="curve" smooth="yes"/>
      <point x="132" y="762"/>
      <point x="174" y="818"/>
      <point x="231" y="818" type="curve" smooth="yes"/>
      <point x="330" y="818"/>
      <point x="312" y="711"/>
      <point x="335" y="711" type="curve" smooth="yes"/>
      <point x="339" y="711"/>
      <point x="345" y="767"/>
      <point x="345" y="773" type="curve" smooth="yes"/>
      <point x="345" y="841"/>
      <point x="435" y="841"/>
    </contour>
  </outline>
</glyph>
<glyph name="u.alt" format="2">
  <advance width="396"/>
  <outline>
    <contour>
      <point x="190" y="362" type="curve" smooth="yes"/>
      <point x="202" y="303"/>
      <point x="202" y="262"/>
      <point x="202" y="219" type="curve" smooth="yes"/>
      <point x="202" y="165"/>
      <point x="202" y="123"/>
      <point x="202" y="87" type="curve" smooth="yes"/>
      <point x="202" y="8"/>
      <point x="221" y="-31"/>
      <point x="276" y="-31" type="curve" smooth="yes"/>
      <point x="332" y="-31"/>
      <point x="364" y="6"/>
      <point x="364" y="87" type="curve" smooth="yes"/>
      <point x="364" y="142"/>
      <point x="364" y="221"/>
      <point x="364" y="258" type="curve" smooth="yes"/>
      <point x="364" y="266"/>
      <point x="366" y="388"/>
      <point x="367" y="378" type="curve" smooth="yes"/>
      <point x="374" y="308"/>
      <point x="374" y="276"/>
      <point x="361" y="246" type="curve" smooth="yes"/>
      <point x="333" y="185"/>
      <point x="251" y="222"/>
      <point x="279" y="284" type="curve" smooth="yes"/>
      <point x="285" y="296"/>
      <point x="280" y="341"/>
      <point x="277" y="370" type="curve" smooth="yes"/>
      <point x="257" y="571"/>
      <point x="454" y="438"/>
      <point x="454" y="258" type="curve" smooth="yes"/>
      <point x="454" y="203"/>
      <point x="454" y="124"/>
      <point x="454" y="87" type="curve" smooth="yes"/>
      <point x="454" y="-54"/>
      <point x="374" y="-121"/>
      <point x="276" y="-121" type="curve" smooth="yes"/>
      <point x="177" y="-121"/>
      <point x="112" y="-55"/>
      <point x="112" y="87" type="curve" smooth="yes"/>
      <point x="112" y="141"/>
      <point x="112" y="183"/>
      <point x="112" y="219" type="curve" smooth="yes"/>
      <point x="112" y="256"/>
      <point x="112" y="293"/>
      <point x="102" y="344" type="curve" smooth="yes"/>
      <point x="89" y="410"/>
      <point x="177" y="428"/>
    </contour>
  </outline>
</glyph>
